PathFileType	4	(X/Y/Z)	C:/Users/beibeiliu/ov580/test_trc/User2\sequence.28_training_dense_left.trc
DataRate	CameraRate	NumFrames	NumMarkers	Units	OrigDataRate	OrigDataStartFrame	OrigNumFrames
120	120	21	19	mm	120	97	256
Frame#	Time	ThumbCMC			ThumbMCP			ThumbIP			ThumbTip			IndexMCP			IndexPIP			IndexTip			MiddleMCP			MiddlePIP			MiddleTip			RingMCP			RingPIP			RingTip			PinkyMCP			PinkyPIP			PinkyTip			BackHand1			BackHand2			BackHand3	
		X0	Y0	Z0	X1	Y1	Z1	X2	Y2	Z2	X3	Y3	Z3	X4	Y4	Z4	X5	Y5	Z5	X6	Y6	Z6	X7	Y7	Z7	X8	Y8	Z8	X9	Y9	Z9	X10	Y10	Z10	X11	Y11	Z11	X12	Y12	Z12	X13	Y13	Z13	X14	Y14	Z14	X15	Y15	Z15	X16	Y16	Z16	X17	Y17	Z17	X18	Y18	Z18	
96	0.8	-140.3	-27.1974	95.5126	-131.371	-45.4125	63.542	-136.357	-59.8753	26.5587	-153.343	-68.1179	9.5226	-156.876	1.24224	20.0019	-152.899	-3.77301	-9.19292	-154.732	-14.6379	-37.4133	-176.177	-27.6956	19.6901	-163.453	-61.5879	24.7492	-161.244	-51.7465	62.7655	-186.001	-48.6104	27.122	-171.72	-70.8676	44.5812	-173.75	-51.5285	74.5346	-200.291	-57.9099	38.8874	-181.904	-73.3236	61.7797	-185.955	-54.4031	86.396	-207.74	-10.2948	74.4131	-208.729	-9.99414	109.415	-170.208	1.74044	96.5564	
97	0.808333	-141.001	-29.7747	96.5898	-130.766	-50.2382	65.2538	-139.659	-64.6615	34.3742	-159.313	-73.6915	11.1455	-157.844	-2.30935	21.796	-156.501	-9.10453	-10.9723	-157.646	-17.8389	-38.1371	-179.242	-34.2181	19.9629	-163.598	-67.003	27.0224	-159.658	-54.6356	64.0559	-188.799	-53.7203	29.4521	-176.77	-76.92	47.044	-174.875	-55.8553	77.3238	-203.133	-61.7586	41.7868	-181.816	-77.2144	64.0101	-184.401	-56.2369	89.7174	-204.996	-10.7153	75.2906	-207.081	-13.5422	114.013	-173.049	-0.255479	92.1145	
98	0.816667	-137.205	-30.8553	97.1667	-127.773	-54.6756	65.7054	-140.546	-69.1421	31.1777	-160.792	-77.3456	16.7018	-161.982	-8.41933	21.3832	-160.82	-14.7741	-10.1603	-163.149	-21.495	-35.1811	-179.124	-38.5237	20.1849	-165.954	-69.6981	24.415	-161.451	-56.9156	65.8828	-191.963	-58.4344	31.9078	-179.884	-80.6576	47.5894	-173.642	-60.4539	77.0726	-204.802	-64.2842	44.9785	-183.992	-80.0774	65.2851	-184.461	-58.7803	92.1235	-206.116	-14.5413	75.6775	-206.857	-14.2462	114.655	-169.562	-2.74825	96.215	
99	0.825	-140.96	-32.5985	94.4881	-131.24	-55.2081	64.6235	-138.68	-72.4631	34.6301	-158.716	-82.8934	17.6132	-165.144	-12.6336	18.8674	-166.149	-17.5094	-6.03308	-170.096	-26.2684	-34.8343	-181.302	-41.1319	21.2967	-166.651	-74.2099	28.4999	-160.72	-59.1435	66.4016	-193.646	-63.2382	33.2354	-177.501	-82.3029	48.813	-171.838	-60.9966	77.7399	-206.478	-63.6887	46.3598	-186.786	-83.9674	64.8209	-184.064	-63.3636	89.0864	-208.369	-15.4707	78.2279	-204.801	-13.2968	112.323	-172.801	-2.23843	96.2086	
100	0.833333	-140.915	-34.3632	100.24	-130.357	-56.7136	65.3129	-139.668	-73.3861	36.6689	-158.026	-84.5724	17.054	-166.307	-14.262	21.5232	-171.037	-20.784	-4.24438	-178.81	-29.6717	-34.1625	-182.324	-46.6903	19.1733	-169.728	-76.6298	27.771	-159.842	-61.214	65.5304	-195.07	-61.0373	33.9002	-178.787	-83.8053	48.0376	-173.751	-62.3051	80.2594	-210.228	-69.4679	48.0037	-187.006	-85.1273	65.1428	-184.353	-64.2778	90.6131	-208.584	-16.8756	77.9317	-203.055	-13.6419	116.313	-170.088	-4.79321	94.2454	
101	0.841667	-140.112	-33.5232	94.796	-133.916	-56.1129	68.9368	-143.544	-72.4072	38.3341	-159.588	-83.7172	19.0789	-167.726	-15.3534	21.0691	-172.134	-22.0237	-3.84144	-184.013	-32.1477	-33.6914	-182.721	-44.2355	22.4675	-170.919	-78.4014	31.9677	-164.879	-63.8618	66.6418	-194.996	-62.8234	33.5295	-180.298	-86.0381	52.7959	-174.211	-64.5422	80.0395	-210.759	-69.4367	48.0189	-188.091	-85.2756	64.104	-186.343	-63.6199	91.7081	-208.048	-15.9086	78.7818	-205.786	-14.3886	111.905	-170.545	-2.52399	90.6464	
102	0.85	-138.931	-32.723	94.6439	-132.023	-55.6214	64.7666	-142.08	-73.3595	37.8058	-160.199	-84.8883	19.0613	-168.161	-15.8146	17.4486	-173.905	-23.4406	-6.44347	-184.563	-33.7029	-29.4164	-184.094	-47.9831	20.6856	-167.372	-78.4675	28.9235	-162.434	-64.9528	66.8206	-197.389	-64.4711	35.5532	-178.534	-85.471	51.7852	-174.974	-64.846	81.1656	-209.126	-67.4027	48.8056	-186.042	-84.5871	66.7642	-186.993	-63.7612	92.5804	-208.906	-17.3653	77.3928	-202.304	-12.4089	110.877	-173.333	-3.43391	90.3385	
103	0.858333	-141.87	-34.2661	95.5137	-132.157	-55.6473	67.9005	-138.858	-75.183	37.1203	-158.495	-85.9348	18.0013	-170.148	-17.3055	19.4992	-176.261	-25.2669	-6.99563	-184.001	-35.3123	-32.9298	-182.243	-47.9859	20.6684	-169.262	-80.5485	31.2457	-161.336	-68.0938	65.0181	-193.566	-64.4117	34.0561	-178.061	-86.0058	50.4068	-174.08	-63.1	80.6477	-207.743	-70.1396	47.538	-185.156	-84.9422	67.4557	-184.353	-61.8337	92.525	-207.385	-18.6242	76.3134	-202.81	-12.7367	110.092	-172.918	-4.91191	90.1618	
104	0.866667	-140.621	-34.1213	98.4277	-133.011	-56.0931	67.1619	-138.878	-75.9357	36.871	-159.11	-86.0241	16.4125	-168.455	-16.9223	19.6447	-176.723	-26.2142	-7.4633	-186.029	-36.3083	-33.1855	-183.087	-48.4553	21.5704	-169.138	-80.3194	29.1478	-160.358	-64.326	67.0509	-193.879	-68.0999	33.7272	-178.359	-86.9448	48.9403	-172.093	-63.7292	79.5596	-208.733	-67.6519	49.1629	-185.755	-85.8585	66.7746	-184.673	-65.5719	93.0513	-209.085	-17.6066	76.6242	-206.366	-12.16	115.413	-169.176	-5.62006	93.0028	
105	0.875	-141.424	-34.775	95.8347	-131.647	-58.1408	68.9323	-142.567	-74.6296	38.3615	-154.693	-86.9016	21.6319	-164.93	-17.4278	20.1808	-174.61	-25.6722	-3.06602	-181.907	-34.5356	-33.5336	-177.926	-46.4774	20.737	-168.333	-79.8842	27.5586	-158.88	-67.3948	66.161	-194.564	-62.4161	35.1259	-175.764	-86.829	51.1978	-172.052	-63.208	81.4355	-209.542	-71.4115	49.7001	-187.235	-88.3799	67.6308	-181.663	-65.2337	89.039	-203.517	-17.3892	78.0159	-201.968	-12.2797	114.983	-172.252	-7.60235	90.0246	
106	0.883333	-136.062	-36.1294	95.9998	-128.078	-60.7382	68.3179	-141.674	-77.0017	36.3924	-161.305	-87.2076	17.2894	-166.494	-18.6927	17.0105	-173.158	-25.2935	-6.77635	-181.799	-35.065	-31.7806	-180.489	-50.3181	18.9722	-169.538	-80.424	28.768	-162.602	-66.7317	67.8881	-194.493	-63.3319	34.9642	-181.227	-87.9459	50.9104	-174.495	-67.7262	80.2065	-205.755	-72.256	48.325	-189.288	-89.6072	69.9696	-185.7	-62.7226	94.1303	-205.992	-19.4563	76.5869	-201.652	-13.5988	115.687	-166.94	-6.73197	92.467	
107	0.891667	-139.192	-37.2925	96.6983	-133.813	-60.0954	63.7653	-144.075	-77.3361	37.7233	-162.1	-88.2912	17.3242	-167.475	-17.9356	20.0123	-177.363	-26.0097	-5.37561	-188.051	-36.7476	-30.3799	-183.8	-51.8118	20.5604	-170.826	-81.9764	31.8782	-164.395	-68.9539	66.1495	-197.711	-66.9055	37.0543	-184.822	-90.0686	53.1401	-173.041	-65.5316	80.5452	-209.663	-72.0617	49.9603	-189.733	-87.504	69.3854	-184.865	-63.1447	91.5254	-208.411	-19.1778	78.5755	-201.451	-13.9518	116.11	-169.081	-4.97718	90.9398	
108	0.9	-140.003	-36.507	94.9138	-137.941	-59.677	64.8995	-147.361	-78.2697	35.8902	-165.137	-90.0201	20.5079	-173.172	-19.0646	19.2885	-183.741	-26.8684	-5.15192	-193.189	-36.7469	-32.7089	-186.398	-52.3544	20.378	-174.343	-83.1126	34.8188	-163.603	-65.1297	66.9416	-200.746	-70.8284	38.6127	-186.849	-90.042	55.5605	-176.61	-63.9561	81.7244	-213.098	-73.2249	53.5997	-191.505	-88.2293	75.0577	-184.355	-64.2125	92.5476	-207.689	-17.8677	79.397	-201.588	-11.6377	114.282	-171.626	-7.71694	89.2775	
109	0.908333	-143.863	-37.2615	91.2268	-137.084	-62.1011	62.6269	-153.018	-80.375	37.377	-173.863	-90.896	19.887	-181.832	-23.4996	19.2242	-189.799	-29.883	-1.8939	-201.002	-38.6823	-25.8926	-192.685	-51.1768	25.3503	-179.695	-85.326	35.1849	-170.954	-68.2719	68.3522	-205.236	-69.7552	40.5475	-188.106	-89.225	59.5524	-180.561	-67.289	83.4051	-217.98	-75.586	56.2102	-192.752	-86.7787	74.6419	-189.061	-63.2686	96.6279	-210.958	-19.1912	83.9727	-202.093	-10.4139	117.485	-172.086	-6.11696	91.7259	
110	0.916667	-143.393	-38.1887	93.7529	-142.61	-64.248	60.4146	-159.609	-82.0643	36.578	-180.988	-90.9107	24.4396	-186.672	-24.5798	20.8769	-200.878	-34.055	-2.13658	-210.962	-40.7471	-22.9114	-197.576	-55.6693	24.9887	-186.672	-87.0739	37.9254	-171.361	-64.829	70.3042	-209.507	-69.7462	41.7998	-193.731	-91.1229	58.5257	-183.869	-67.5211	85.0948	-220.972	-73.8423	58.3863	-198.364	-87.9833	76.0475	-192.263	-63.9336	93.9857	-214.991	-20.2196	85.3101	-205.534	-11.9482	119.075	-174.158	-6.40644	90.9509	
111	0.925	-147.11	-39.2016	91.7079	-144.479	-65.1235	65.9907	-160.224	-83.7087	38.7011	-180.721	-95.8587	23.6841	-190.219	-26.5604	20.5226	-204.467	-34.62	0.211287	-219.858	-45.3743	-23.2751	-201.172	-56.4814	23.8053	-192.598	-87.853	36.2701	-176.63	-68.2485	70.0829	-215.282	-71.7941	44.1221	-199.218	-93.5295	59.4779	-186.371	-69.8614	84.0655	-228.799	-73.5273	60.9796	-203.967	-92.1652	76.8082	-194.731	-63.1543	98.6767	-215.684	-20.9642	80.2047	-204.867	-12.1971	117.201	-178.978	-9.14637	91.8891	
112	0.933333	-145.777	-39.9489	91.8537	-146.633	-66.6633	62.475	-162.677	-85.1456	38.1895	-183.991	-98.2825	22.7725	-191.526	-27.8283	20.2483	-205.758	-36.7495	-4.4046	-223.655	-47.6348	-25.2664	-207.428	-56.0891	27.3752	-192.732	-88.7482	31.9905	-177.251	-74.3673	66.4761	-216.631	-73.9866	42.6432	-200.644	-94.5389	57.4347	-186.231	-71.5104	81.5626	-227.054	-77.5619	59.5122	-205.139	-91.3601	73.6368	-196.566	-64.6437	94.219	-218.2	-21.9769	84.4586	-206.915	-13.499	114.531	-180.213	-8.78065	88.1941	
113	0.941667	-146.547	-41.1366	88.427	-145.058	-66.0928	64.1906	-160.444	-86.6789	36.3321	-183.334	-97.9659	20.9291	-190.124	-28.5996	20.3278	-206.046	-37.3549	-5.28618	-220.768	-46.7627	-26.769	-206.874	-60.3877	23.5055	-192.314	-89.137	30.1965	-177.626	-70.8298	67.7895	-214.989	-74.4926	39.9094	-199.058	-93.7605	54.6395	-186.942	-70.051	83.4724	-228.687	-75.4031	58.6334	-204.443	-93.3986	76.5101	-197.336	-66.0782	96.3299	-215.112	-21.1793	79.1429	-210.092	-13.8457	115.96	-178.038	-10.0492	89.8748	
114	0.95	-147.334	-40.6191	94.4901	-145.709	-65.7856	61.8041	-159.796	-84.347	34.8634	-179.001	-95.7483	23.3626	-185.344	-26.1784	18.7419	-197.61	-35.5998	-6.64401	-212.449	-44.3843	-25.0083	-198.271	-55.2162	21.7193	-188.623	-89.3935	33.1914	-173.902	-77.3662	63.6592	-213.795	-75.2596	38.1459	-197.95	-94.0428	52	-184.425	-73.9429	80.0137	-225.326	-72.2793	55.15	-202.473	-92.7676	69.4614	-195.785	-71.1008	93.9419	-215.068	-22.8225	82.8185	-210.823	-16.0067	112.306	-179.824	-9.69654	90.9277	
115	0.958333	-146.51	-40.6823	93.9462	-139.504	-64.1404	68.1573	-151.549	-83.7842	34.9416	-170.338	-93.4772	20.7439	-175.289	-23.4323	19.235	-184.949	-31.3371	-9.51403	-193.188	-39.1095	-30.5292	-194.358	-54.4286	20.3132	-184.298	-88.1625	31.4693	-170.743	-76.9366	62.6606	-205.611	-67.8254	35.2116	-189.497	-93.3447	52.6352	-180.742	-72.0715	78.1114	-220.102	-75.4524	49.8306	-200.886	-93.9654	68.6405	-190.648	-69.0955	90.0445	-212.697	-22.5049	78.2642	-206.749	-14.8129	111.666	-172.561	-10.2352	89.2882	
116	0.966667	-141.606	-40.932	100.103	-134.059	-63.7035	66.5554	-140.744	-81.5391	39.1914	-161.755	-89.9452	20.6045	-163.668	-22.1869	21.4772	-168.599	-27.291	-5.3148	-172.562	-35.266	-33.7929	-183.847	-49.988	19.975	-171.823	-85.4197	26.1662	-167.035	-75.4956	64.6607	-198.524	-66.9861	33.0395	-182.086	-91.8117	48.8772	-177.09	-73.7754	78.9202	-210.108	-73.2496	45.9983	-194.597	-94.0133	64.8482	-187.38	-72.2471	90.6537	-204.522	-19.1275	75.617	-207.793	-14.9817	110.798	-169.69	-8.79795	93.7775	
